<svg width="95" height="121" viewBox="0 0 95 121" fill="none" xmlns="http://www.w3.org/2000/svg">
<rect width="95" height="121" fill="#B4B4B4"/>
<g id="Delete" clip-path="url(#clip0_0_1)">
<g id="Clip path group">
<mask id="mask0_0_1" style="mask-type:luminance" maskUnits="userSpaceOnUse" x="-152" y="-564" width="1125" height="2436">
<g id="clip-Delete_1">
<path id="Vector" d="M973 -564H-152V1872H973V-564Z" fill="white"/>
</g>
</mask>
<g mask="url(#mask0_0_1)">
<g id="Delete &#226;&#128;&#147; 1">
<path id="Vector_2" d="M973 -564H-152V1872H973V-564Z" fill="#F6F5FF"/>
<path id="Rectangle 2439" d="M977 -564H-156V2929H977V-564Z" fill="url(#paint0_linear_0_1)"/>
<g id="Group 17456">
<g id="Group 17426">
<path id="Path 6651" d="M-25 -51H119C129.609 -51 139.783 -46.7857 147.284 -39.2843C154.786 -31.7828 159 -21.6087 159 -11V131C159 136.253 157.965 141.454 155.955 146.307C153.945 151.16 150.999 155.57 147.284 159.284C143.57 162.999 139.16 165.945 134.307 167.955C129.454 169.965 124.253 171 119 171H-25C-30.2529 171 -35.4543 169.965 -40.3073 167.955C-45.1603 165.945 -49.57 162.999 -53.2843 159.284C-56.9986 155.57 -59.945 151.16 -61.9552 146.307C-63.9654 141.454 -65 136.253 -65 131V-11C-65 -21.6087 -60.7858 -31.7828 -53.2843 -39.2843C-45.7828 -46.7857 -35.6087 -51 -25 -51Z" fill="url(#paint1_linear_0_1)"/>
</g>
</g>
<g id="delete">
<path id="Path 6631" d="M36.95 7.30098H57.169V10.701H64.469V6.82798C64.4679 5.01888 63.7493 3.28408 62.4707 2.0042C61.1921 0.724319 59.4581 0.00388945 57.649 0.000976563L36.47 0.000976562C34.6605 0.00362398 32.926 0.723873 31.6469 2.00372C30.3678 3.28358 29.6486 5.01852 29.647 6.82798V10.706H36.947L36.95 7.30098Z" fill="white"/>
<path id="Path 6632" d="M81.3341 39.6389H12.7841C12.3399 39.6389 11.9005 39.7308 11.4936 39.909C11.0867 40.0872 10.7211 40.3477 10.4199 40.6742C10.1187 41.0007 9.88842 41.386 9.74352 41.8059C9.59863 42.2258 9.5423 42.6712 9.57807 43.1139L15.3091 113.979C15.4626 115.885 16.3279 117.663 17.733 118.96C19.1381 120.257 20.9799 120.978 22.8921 120.979H71.2241C73.1363 120.978 74.9781 120.257 76.3831 118.96C77.7882 117.663 78.6536 115.885 78.8071 113.979L84.5381 43.1149C84.5741 42.6726 84.5182 42.2276 84.3737 41.808C84.2293 41.3884 83.9996 41.0032 83.699 40.6767C83.3983 40.3503 83.0334 40.0896 82.627 39.9112C82.2207 39.7327 81.7819 39.6404 81.3381 39.6399L81.3341 39.6389ZM29.3821 113.424C29.3051 113.424 29.2291 113.431 29.1531 113.431C28.2243 113.43 27.3308 113.075 26.6545 112.438C25.9782 111.801 25.5701 110.931 25.5131 110.004L21.9221 51.8279C21.8625 50.8613 22.1894 49.9107 22.8308 49.1851C23.4722 48.4595 24.3755 48.0185 25.3421 47.9589C26.3087 47.8994 27.2593 48.2262 27.9849 48.8676C28.7105 49.509 29.1515 50.4123 29.2111 51.3789L32.8021 109.555C32.8617 110.521 32.535 111.472 31.8939 112.197C31.2527 112.923 30.3485 113.364 29.3821 113.424ZM50.7511 109.78C50.7288 110.733 50.3344 111.64 49.6523 112.306C48.9703 112.972 48.0546 113.345 47.1011 113.345C46.1476 113.345 45.2319 112.972 44.5498 112.306C43.8677 111.64 43.4734 110.733 43.4511 109.78V51.6019C43.4734 50.6487 43.8677 49.742 44.5498 49.0757C45.2319 48.4094 46.1476 48.0364 47.1011 48.0364C48.0546 48.0364 48.9703 48.4094 49.6523 49.0757C50.3344 49.742 50.7288 50.6487 50.7511 51.6019V109.78ZM72.1961 51.8179L68.7671 109.989C68.7125 110.918 68.3052 111.791 67.6285 112.43C66.9517 113.068 66.0566 113.424 65.1261 113.425C65.0541 113.425 64.9811 113.425 64.9081 113.419C64.4294 113.391 63.961 113.269 63.5295 113.059C63.0981 112.85 62.7121 112.558 62.3935 112.199C62.075 111.841 61.8302 111.423 61.6732 110.97C61.5161 110.517 61.4498 110.038 61.4781 109.559L64.9061 51.3889C64.9631 50.4222 65.4018 49.5177 66.1257 48.8745C66.8496 48.2312 67.7994 47.9019 68.7661 47.9589C69.7328 48.0159 70.6373 48.4547 71.2805 49.1785C71.9238 49.9024 72.2531 50.8512 72.1961 51.8179Z" fill="white"/>
<path id="Path 6633" d="M93.9611 28.371L91.5611 21.183C91.2528 20.2596 90.6622 19.4565 89.8726 18.8871C89.0831 18.3177 88.1345 18.0109 87.1611 18.01H6.95906C5.98556 18.0107 5.03693 18.3175 4.24733 18.8869C3.45773 19.4563 2.86713 20.2595 2.55906 21.183L0.159056 28.371C0.00894468 28.8238 -0.0316044 29.3058 0.0407386 29.7774C0.113082 30.2489 0.296253 30.6966 0.575209 31.0836C0.854165 31.4706 1.22095 31.7859 1.64543 32.0036C2.06992 32.2213 2.53999 32.3353 3.01706 32.336H91.1001C91.6647 32.3369 92.218 32.177 92.6951 31.875C93.2677 31.5179 93.7036 30.9785 93.9327 30.3437C94.1617 29.7089 94.1707 29.0155 93.9581 28.375L93.9611 28.371Z" fill="white"/>
</g>
</g>
</g>
</g>
</g>
<defs>
<linearGradient id="paint0_linear_0_1" x1="410.5" y1="-564" x2="410.5" y2="2929" gradientUnits="userSpaceOnUse">
<stop stop-color="white"/>
<stop offset="1" stop-color="#F4F3FF"/>
</linearGradient>
<linearGradient id="paint1_linear_0_1" x1="-54.92" y1="-60.102" x2="139.657" y2="123.901" gradientUnits="userSpaceOnUse">
<stop stop-color="#E90909"/>
<stop offset="1" stop-color="#FF7700"/>
</linearGradient>
<clipPath id="clip0_0_1">
<rect width="1125" height="2436" fill="white" transform="translate(-152 -564)"/>
</clipPath>
</defs>
</svg>
