<svg width="42" height="43" viewBox="0 0 42 43" fill="none" xmlns="http://www.w3.org/2000/svg">
<g clip-path="url(#clip0_2291_1856)">
<path d="M12.227 3.34189L10.337 5.23189C10.2976 5.2713 10.2508 5.30255 10.1994 5.32388C10.1479 5.34521 10.0927 5.35618 10.037 5.35618C9.98126 5.35618 9.92608 5.34521 9.8746 5.32388C9.82312 5.30255 9.77635 5.2713 9.73695 5.23189L7.84695 3.34189C7.80754 3.30249 7.77629 3.25572 7.75496 3.20424C7.73363 3.15276 7.72266 3.09758 7.72266 3.04186C7.72266 2.98614 7.73363 2.93096 7.75496 2.87948C7.77629 2.828 7.80754 2.78123 7.84695 2.74183L9.73695 0.851832C9.77635 0.812427 9.82312 0.781168 9.8746 0.759842C9.92608 0.738516 9.98126 0.727539 10.037 0.727539C10.0927 0.727539 10.1479 0.738516 10.1994 0.759842C10.2508 0.781168 10.2976 0.812427 10.337 0.851832L12.227 2.74183C12.3066 2.82142 12.3512 2.92934 12.3512 3.04186C12.3512 3.15438 12.3066 3.2623 12.227 3.34189Z" fill="#8BC727"/>
<path d="M12.8789 38.0537V41.8824C12.8789 42.3491 13.2572 42.7274 13.724 42.7274H29.7632C30.2299 42.7274 30.6082 42.3491 30.6082 41.8824V38.0537H12.8789Z" fill="#FFBD86"/>
<path d="M26.1553 38.0537V42.7274H29.7631C30.2298 42.7274 30.6082 42.3491 30.6082 41.8824V38.0537H26.1553Z" fill="#F6A96C"/>
<path d="M31.7239 23.8842C31.9505 23.2461 32.0661 22.5738 32.0657 21.8966C32.0657 18.6147 29.4052 15.9541 26.1232 15.9541C22.8412 15.9541 20.1807 18.6146 20.1807 21.8966C20.1807 22.5939 20.3018 23.2626 20.5224 23.8842H31.7239Z" fill="#FFC344"/>
<path d="M31.4367 22.0022H20.1836C20.1942 22.6438 20.3088 23.2794 20.523 23.8842H31.7245C31.9441 23.2646 32.0592 22.6127 32.065 21.9553C31.857 21.9865 31.647 22.0021 31.4367 22.0022Z" fill="#FEB237"/>
<path d="M12.4438 17.1418C14.1658 17.1418 15.77 17.8293 16.9607 19.0778L17.0488 19.1702L17.0994 19.0529C17.1845 18.8558 17.3062 18.6765 17.4581 18.5247C17.616 18.366 17.8037 18.2402 18.0105 18.1546C18.2173 18.0689 18.439 18.0251 18.6628 18.0257C19.0346 18.0257 19.4017 18.1493 19.6965 18.3736L19.812 18.4614L19.8315 18.3175C19.9452 17.4758 20.6722 16.8411 21.5226 16.8411C22.373 16.8411 23.1001 17.4758 23.2138 18.3175L23.2332 18.4614L23.3487 18.3736C23.4805 18.2741 23.626 18.1944 23.7808 18.1369C23.8887 17.6848 23.9434 17.2216 23.9436 16.7567C23.9436 13.4747 21.2831 10.8142 18.0011 10.8142C14.7191 10.8142 12.0586 13.4747 12.0586 16.7567C12.0586 16.8903 12.0646 17.0223 12.0733 17.1537C12.196 17.1464 12.3194 17.1418 12.4438 17.1418Z" fill="#FD6930"/>
<path d="M22.9163 13.4153C22.0434 15.6111 19.9006 17.1642 17.3937 17.1642C15.3508 17.1642 13.5491 16.133 12.4795 14.5631C12.2017 15.261 12.0592 16.0055 12.0596 16.7567C12.0596 16.8902 12.0656 17.0223 12.0743 17.1537C12.1976 17.1461 12.3211 17.1421 12.4447 17.1418C14.1667 17.1418 15.7709 17.8293 16.9616 19.0778L17.0497 19.1702L17.1003 19.053C17.1854 18.8558 17.3071 18.6765 17.459 18.5248C17.6169 18.3661 17.8046 18.2402 18.0114 18.1546C18.2182 18.0689 18.4399 18.0251 18.6637 18.0258C19.0355 18.0258 19.4026 18.1493 19.6974 18.3736L19.8129 18.4614L19.8324 18.3176C19.9461 17.4758 20.6731 16.8412 21.5235 16.8412C22.3739 16.8412 23.101 17.4758 23.2147 18.3176L23.2341 18.4614L23.3496 18.3736C23.4814 18.2741 23.6269 18.1944 23.7817 18.1369C23.8896 17.6848 23.9443 17.2216 23.9445 16.7567C23.9446 15.5176 23.5649 14.3674 22.9163 13.4153Z" fill="#FD5426"/>
<path d="M39.5367 23.8841L32.1707 16.5181C31.9964 16.3439 31.7099 16.3535 31.5492 16.5403C29.7507 18.6314 29.6353 21.6699 31.2003 23.8841H39.5367Z" fill="#8BC727"/>
<path d="M35.265 19.6125C34.5671 21.0246 33.1106 22.0021 31.4364 22.0021H30.3164C30.4981 22.6765 30.7973 23.3135 31.2001 23.8841H39.5366L35.265 19.6125Z" fill="#81B823"/>
<path d="M26.8012 23.8843C26.9765 23.7173 27.1161 23.5164 27.2113 23.2937C27.3066 23.0711 27.3556 22.8314 27.3553 22.5893C27.3553 21.6819 26.6806 20.9326 25.8056 20.8143C26.34 20.1121 26.2883 19.1065 25.647 18.4651C25.0057 17.8238 24 17.7721 23.2978 18.3065C23.1796 17.4315 22.4302 16.7568 21.5229 16.7568C20.6155 16.7568 19.8661 17.4315 19.7479 18.3065C19.0457 17.7721 18.0401 17.8238 17.3987 18.4651C16.7574 19.1065 16.7057 20.1121 17.2401 20.8143C16.3651 20.9326 15.6904 21.6819 15.6904 22.5893C15.6904 23.0987 15.9031 23.5582 16.2446 23.8843H26.8012Z" fill="#FFF3BE"/>
<path d="M15.7906 22.0022C15.7246 22.1909 15.6907 22.3893 15.6904 22.5891C15.6904 23.0985 15.9031 23.5581 16.2446 23.8842H26.8012C26.9766 23.7172 27.1161 23.5162 27.2114 23.2936C27.3067 23.071 27.3556 22.8313 27.3554 22.5891C27.3554 22.3833 27.3191 22.1863 27.2552 22.0022H15.7906Z" fill="#FFE177"/>
<path d="M18.7501 23.884C18.763 23.7191 18.7715 23.5529 18.7715 23.3848C18.7715 19.8901 15.9386 17.0571 12.4439 17.0571C8.94916 17.0571 6.11621 19.8902 6.11621 23.3848C6.11621 23.553 6.12474 23.7191 6.13762 23.884H18.7501Z" fill="#8BC727"/>
<path d="M6.26953 22.0022C6.1679 22.4561 6.11649 22.9198 6.11621 23.3849C6.11621 23.5532 6.12474 23.7193 6.13762 23.8842H18.7501C18.763 23.7193 18.7715 23.5531 18.7715 23.3849C18.7715 22.9098 18.7174 22.4475 18.6182 22.0022H6.26953Z" fill="#81B823"/>
<path d="M15.8048 23.8842C15.8289 23.7212 15.8417 23.5546 15.8417 23.385C15.8417 21.5089 14.3208 19.988 12.4448 19.988C10.5687 19.988 9.04785 21.5089 9.04785 23.385C9.04785 23.5546 9.06065 23.7213 9.08468 23.8842H15.8048Z" fill="#A2E62E"/>
<path d="M9.34112 22.0022C9.14676 22.4372 9.04649 22.9084 9.04688 23.3849C9.04688 23.5546 9.05967 23.7212 9.08371 23.8842H15.804C15.828 23.7212 15.8408 23.5546 15.8408 23.3849C15.8412 22.9084 15.7409 22.4372 15.5465 22.0022H9.34112Z" fill="#97D729"/>
<path d="M32.7796 3.7033C32.5883 3.89468 32.5599 4.20016 32.7236 4.41574C33.7349 5.74711 33.6329 7.65409 32.4176 8.8693C31.2023 10.0846 29.2954 10.1866 27.9641 9.17527C27.7486 9.01154 27.443 9.03992 27.2516 9.2313L25.9491 10.5339C25.7213 10.7617 25.7349 11.1384 25.9829 11.344C28.4688 13.4046 32.1612 13.2704 34.49 10.9417C36.8188 8.61287 36.9529 4.92048 34.8923 2.4346C34.6867 2.18654 34.3099 2.17292 34.0821 2.40072L32.7796 3.7033Z" fill="#FFE5C2"/>
<path d="M34.8917 2.4346C34.6862 2.18654 34.3094 2.17292 34.0816 2.40072L33.8571 2.62524C35.1308 5.01768 34.7609 8.0553 32.7447 10.0714C31.0156 11.8005 28.535 12.3185 26.3545 11.6278C28.8253 13.3847 32.2739 13.1571 34.4893 10.9417C36.8182 8.61287 36.9524 4.92039 34.8917 2.4346Z" fill="#FED2A4"/>
<path d="M3.84786 17.6032C4.03924 17.4118 4.06762 17.1063 3.90389 16.8907C2.8926 15.5593 2.99457 13.6524 4.20986 12.4372C5.42516 11.2219 7.33214 11.1199 8.66342 12.1312C8.87892 12.2949 9.18448 12.2665 9.37586 12.0752L10.6784 10.7726C10.9062 10.5448 10.8926 10.1681 10.6446 9.96244C8.15868 7.9019 4.46629 8.03602 2.13751 10.3648C-0.191279 12.6936 -0.3254 16.386 1.73514 18.8719C1.94071 19.1199 2.31748 19.1335 2.54528 18.9057L3.84786 17.6032Z" fill="#FFE5C2"/>
<path d="M3.90341 16.8907C3.47422 16.3258 3.24634 15.6571 3.2182 14.9816L0.816406 17.3834C1.05168 17.9199 1.36075 18.4209 1.73466 18.8719C1.94023 19.1199 2.317 19.1335 2.5448 18.9057L3.84738 17.6032C4.03868 17.4118 4.06706 17.1062 3.90341 16.8907ZM6.75383 11.446C7.42927 11.4742 8.09791 11.7021 8.66294 12.1312C8.87844 12.2949 9.184 12.2665 9.37538 12.0752L10.678 10.7726C10.9058 10.5448 10.8921 10.1681 10.6441 9.96245C10.1931 9.58854 9.69212 9.27946 9.15562 9.04419L6.75383 11.446Z" fill="#FED2A4"/>
<path d="M12.8785 38.1383H30.6079C35.999 35.573 40.1013 30.7406 41.6858 24.8738C41.832 24.3327 41.4278 23.7996 40.8673 23.7996H2.61913C2.05861 23.7996 1.65444 24.3328 1.80062 24.8738C3.38506 30.7406 7.48736 35.5731 12.8785 38.1383Z" fill="#F6A96C"/>
<path d="M40.8674 23.7996H37.0172C35.2803 28.6538 31.7795 32.6685 27.2854 35.0699C26.7483 35.3569 26.1466 35.5021 25.5376 35.5021H8.71191C9.99064 36.544 11.3895 37.429 12.8787 38.1383H30.608C35.9992 35.573 40.1015 30.7406 41.6859 24.8738C41.8321 24.3328 41.428 23.7996 40.8674 23.7996Z" fill="#EA9B58"/>
<path d="M25.3628 6.08225H17.0776C16.9651 6.08225 16.8572 6.03755 16.7776 5.95799C16.698 5.87842 16.6533 5.77051 16.6533 5.65798V3.09516C16.6533 2.98264 16.698 2.87473 16.7776 2.79516C16.8572 2.7156 16.9651 2.6709 17.0776 2.6709H25.3628C25.4753 2.6709 25.5833 2.7156 25.6628 2.79516C25.7424 2.87473 25.7871 2.98264 25.7871 3.09516V5.65798C25.7871 5.7137 25.7761 5.76888 25.7548 5.82036C25.7335 5.87184 25.7022 5.91861 25.6628 5.95801C25.6235 5.99741 25.5767 6.02866 25.5252 6.04998C25.4737 6.07129 25.4185 6.08226 25.3628 6.08225Z" fill="#FFE177"/>
<path d="M25.3628 2.67065H24.0425V4.34844C24.0425 4.40415 24.0316 4.45932 24.0102 4.5108C23.9889 4.56227 23.9577 4.60904 23.9183 4.64844C23.8789 4.68784 23.8321 4.71909 23.7806 4.74041C23.7292 4.76173 23.674 4.77271 23.6183 4.77271H16.6533V5.65774C16.6533 5.77026 16.698 5.87818 16.7776 5.95774C16.8572 6.03731 16.9651 6.08201 17.0776 6.08201H25.3628C25.4185 6.08201 25.4737 6.07103 25.5252 6.04971C25.5767 6.02839 25.6234 5.99714 25.6628 5.95774C25.7022 5.91834 25.7335 5.87157 25.7548 5.8201C25.7761 5.76863 25.7871 5.71346 25.7871 5.65774V3.095C25.7871 3.03928 25.7762 2.98409 25.7548 2.9326C25.7335 2.88112 25.7023 2.83433 25.6629 2.79492C25.6235 2.75552 25.5767 2.72426 25.5252 2.70294C25.4737 2.68161 25.4185 2.67064 25.3628 2.67065Z" fill="#FFD15B"/>
<path d="M40.7016 15.557L38.8116 17.447C38.7722 17.4864 38.7254 17.5176 38.674 17.539C38.6225 17.5603 38.5673 17.5713 38.5116 17.5713C38.4559 17.5713 38.4007 17.5603 38.3492 17.539C38.2977 17.5176 38.251 17.4864 38.2116 17.447L36.3216 15.557C36.2822 15.5176 36.2509 15.4708 36.2296 15.4193C36.2082 15.3678 36.1973 15.3127 36.1973 15.2569C36.1973 15.2012 36.2082 15.1461 36.2296 15.0946C36.2509 15.0431 36.2822 14.9963 36.3216 14.9569L38.2116 13.0669C38.251 13.0275 38.2977 12.9963 38.3492 12.9749C38.4007 12.9536 38.4559 12.9426 38.5116 12.9426C38.5673 12.9426 38.6225 12.9536 38.674 12.9749C38.7254 12.9963 38.7722 13.0275 38.8116 13.0669L40.7016 14.9569C40.741 14.9963 40.7723 15.0431 40.7936 15.0946C40.8149 15.1461 40.8259 15.2012 40.8259 15.2569C40.8259 15.3127 40.8149 15.3678 40.7936 15.4193C40.7723 15.4708 40.741 15.5176 40.7016 15.557Z" fill="#A2E62E"/>
<path d="M40.701 14.957L39.7987 14.0547L37.3086 16.5447L38.2109 17.4471C38.2503 17.4865 38.2971 17.5178 38.3486 17.5391C38.4001 17.5604 38.4552 17.5714 38.511 17.5714C38.5667 17.5714 38.6219 17.5604 38.6733 17.5391C38.7248 17.5178 38.7716 17.4865 38.811 17.4471L40.701 15.5571C40.7404 15.5177 40.7717 15.4709 40.793 15.4194C40.8143 15.368 40.8253 15.3128 40.8253 15.2571C40.8253 15.2013 40.8143 15.1462 40.793 15.0947C40.7717 15.0432 40.7404 14.9964 40.701 14.957Z" fill="#97D729"/>
<path d="M12.2274 2.74194L11.325 1.8396L8.83496 4.32966L9.73722 5.232C9.77662 5.27141 9.82339 5.30267 9.87487 5.32399C9.92635 5.34532 9.98153 5.35629 10.0373 5.35629C10.093 5.35629 10.1482 5.34532 10.1996 5.32399C10.2511 5.30267 10.2979 5.27141 10.3373 5.232L12.2273 3.342C12.2667 3.30261 12.298 3.25584 12.3193 3.20436C12.3406 3.15289 12.3516 3.09771 12.3516 3.04199C12.3516 2.98627 12.3407 2.93109 12.3193 2.87961C12.298 2.82812 12.2668 2.78135 12.2274 2.74194Z" fill="#81B823"/>
<path d="M18.2297 14.1249C18.0671 14.111 17.9167 14.0331 17.8116 13.9083C17.7064 13.7836 17.6552 13.6221 17.6691 13.4596L17.7066 13.0209C17.7128 12.94 17.735 12.861 17.7719 12.7886C17.8088 12.7163 17.8597 12.6519 17.9216 12.5993C17.9835 12.5467 18.0552 12.5069 18.1325 12.4821C18.2099 12.4574 18.2914 12.4482 18.3724 12.4551C18.4533 12.462 18.5321 12.4849 18.6041 12.5224C18.6762 12.5599 18.7401 12.6114 18.7922 12.6737C18.8442 12.736 18.8834 12.8081 18.9075 12.8857C18.9316 12.9632 18.9401 13.0448 18.9325 13.1257L18.895 13.5643C18.8811 13.7269 18.8032 13.8773 18.6784 13.9824C18.5537 14.0875 18.3922 14.1388 18.2297 14.1249ZM15.9819 14.8387C15.9014 14.8319 15.823 14.8093 15.7512 14.7721C15.6795 14.7349 15.6158 14.6839 15.5638 14.622L15.2802 14.2854C15.175 14.1606 15.1238 13.9991 15.1377 13.8366C15.1516 13.674 15.2295 13.5236 15.3543 13.4185C15.4791 13.3133 15.6405 13.2621 15.8031 13.276C15.9657 13.2899 16.1161 13.3678 16.2212 13.4926L16.5049 13.8293C16.5833 13.9223 16.6323 14.0366 16.6458 14.1575C16.6593 14.2784 16.6366 14.4007 16.5806 14.5087C16.5247 14.6167 16.4379 14.7058 16.3313 14.7645C16.2248 14.8232 16.1032 14.849 15.9819 14.8387ZM20.3238 15.2096C20.2025 15.1993 20.0871 15.1532 19.992 15.0772C19.897 15.0013 19.8266 14.8988 19.7897 14.7829C19.7529 14.6669 19.7513 14.5426 19.7851 14.4257C19.8189 14.3088 19.8866 14.2046 19.9796 14.1262L20.3163 13.8425C20.5761 13.6235 20.9643 13.6567 21.1832 13.9165C21.4021 14.1763 21.3691 14.5644 21.1092 14.7834L20.7726 15.0671C20.7108 15.1192 20.6394 15.1587 20.5624 15.1831C20.4854 15.2076 20.4043 15.2166 20.3238 15.2096ZM14.8972 16.9328L14.4587 16.8953C14.3777 16.8891 14.2987 16.8668 14.2264 16.8299C14.154 16.793 14.0897 16.7422 14.0371 16.6803C13.9844 16.6184 13.9446 16.5467 13.9199 16.4693C13.8951 16.3919 13.8859 16.3104 13.8929 16.2295C13.8998 16.1485 13.9227 16.0698 13.9602 15.9977C13.9977 15.9257 14.0491 15.8618 14.1114 15.8097C14.1738 15.7576 14.2458 15.7184 14.3234 15.6943C14.401 15.6702 14.4826 15.6617 14.5634 15.6693L15.002 15.7068C15.083 15.713 15.1619 15.7352 15.2343 15.7722C15.3067 15.8091 15.371 15.8599 15.4236 15.9218C15.4762 15.9837 15.5161 16.0554 15.5408 16.1328C15.5656 16.2102 15.5747 16.2917 15.5678 16.3726C15.5609 16.4536 15.538 16.5323 15.5005 16.6044C15.463 16.6764 15.4116 16.7403 15.3492 16.7924C15.2869 16.8445 15.2148 16.8837 15.1373 16.9078C15.0597 16.9319 14.9781 16.9404 14.8972 16.9328Z" fill="#FFD15B"/>
</g>
<defs>
<clipPath id="clip0_2291_1856">
<rect width="42" height="42" fill="white" transform="translate(0 0.727539)"/>
</clipPath>
</defs>
</svg>
